# This file uses centimeters as units for non-parametric coordinates.

g default
v -128.000000 -0.000000 128.000000
v -42.666664 -0.000000 128.000000
v 42.666672 -0.000000 128.000000
v 128.000000 -0.000000 128.000000
v -128.000000 -0.000000 42.666664
v -42.666664 -0.000000 42.666664
v 42.666672 -0.000000 42.666664
v 128.000000 -0.000000 42.666664
v -128.000000 0.000000 -42.666672
v -42.666664 0.000000 -42.666672
v 42.666672 0.000000 -42.666672
v 128.000000 0.000000 -42.666672
v -128.000000 0.000000 -128.000000
v -42.666664 0.000000 -128.000000
v 42.666672 0.000000 -128.000000
v 128.000000 0.000000 -128.000000
vt 0.000000 0.000000
vt 0.000000 0.000000
vt 0.000000 0.000000
vt 1.000000 0.000000
vt 0.000000 0.000000
vt 0.000000 0.000000
vt 0.000000 0.000000
vt 1.000000 0.000000
vt 0.000000 0.000000
vt 0.000000 0.000000
vt 0.000000 0.000000
vt 1.000000 0.000000
vt 0.000000 1.000000
vt 0.000000 1.000000
vt 0.000000 1.000000
vt 1.000000 1.000000
vt 1.000000 0.000000
vt 1.000000 1.000000
vt 0.000000 1.000000
vt 1.000000 0.000000
vt 1.000000 1.000000
vt 0.000000 1.000000
vt 1.000000 1.000000
vt 0.000000 1.000000
vt 1.000000 0.000000
vt 1.000000 1.000000
vt 0.000000 1.000000
vt 1.000000 0.000000
vt 1.000000 1.000000
vt 0.000000 1.000000
vt 1.000000 1.000000
vt 0.000000 1.000000
vt 1.000000 0.000000
vt 1.000000 1.000000
vt 1.000000 0.000000
vt 1.000000 1.000000
vn 0.000000 1.000000 0.000000
vn 0.000000 1.000000 0.000000
vn 0.000000 1.000000 0.000000
vn 0.000000 1.000000 0.000000
vn 0.000000 1.000000 0.000000
vn 0.000000 1.000000 0.000000
vn 0.000000 1.000000 0.000000
vn 0.000000 1.000000 0.000000
vn 0.000000 1.000000 0.000000
vn 0.000000 1.000000 0.000000
vn 0.000000 1.000000 0.000000
vn 0.000000 1.000000 0.000000
vn 0.000000 1.000000 0.000000
vn 0.000000 1.000000 0.000000
vn 0.000000 1.000000 0.000000
vn 0.000000 1.000000 0.000000
g plane
f 1/1/1 2/17/2 6/18/3 5/19/4
f 2/2/2 3/20/5 7/21/6 6/22/3
f 3/3/5 4/4/7 8/23/8 7/24/6
f 5/5/4 6/25/3 10/26/9 9/27/10
f 6/6/3 7/28/6 11/29/11 10/30/9
f 7/7/6 8/8/8 12/31/12 11/32/11
f 9/9/10 10/33/9 14/34/13 13/13/14
f 10/10/9 11/35/11 15/36/15 14/14/13
f 11/11/11 12/12/12 16/16/16 15/15/15
